<svg width="75" height="75" viewBox="0 0 75 75" fill="none" xmlns="http://www.w3.org/2000/svg">
<circle cx="37.5" cy="37.5" r="37.5" fill="url(#paint0_linear_105_1666)"/>
<path d="M43.1776 33.1129C43.1776 36.2149 42.6489 38.0937 41.5916 39.5249C40.6744 40.6718 39.4934 41.5849 38.1472 42.1881C36.8009 42.7913 35.3285 43.0671 33.8527 42.9925C32.2817 42.9991 30.7263 42.6844 29.2839 42.0682C27.8415 41.452 26.5432 40.5475 25.4705 39.4114L28.4132 36.3851C29.0786 37.1733 29.9105 37.8076 30.8503 38.2433C31.7901 38.679 32.8149 38.9056 33.8527 38.907C34.5155 38.9473 35.1792 38.8428 35.7967 38.601C36.4142 38.3591 36.9705 37.9857 37.426 37.5074C38.1393 36.7256 38.496 35.6537 38.496 33.447V32.8985C37.169 33.9388 35.5197 34.4934 33.8272 34.4684C32.5745 34.4676 31.336 34.2056 30.1925 33.6993C29.0489 33.1931 28.0259 32.4541 27.1902 31.5304C25.7388 29.8253 24.9624 27.6565 25.0055 25.4273C24.9646 24.2826 25.152 23.1411 25.557 22.068C25.9619 20.995 26.5765 20.0115 27.3655 19.1737C28.1546 18.3358 29.1027 17.66 30.1557 17.185C31.2087 16.71 32.3459 16.4449 33.5024 16.4051H33.5724C35.4234 16.3896 37.223 17.0064 38.668 18.1515V16.8149H43.1648L43.1776 33.1129ZM39.0438 25.4777C39.02 24.5779 38.7287 23.705 38.2063 22.9682C37.684 22.2314 36.9537 21.6634 36.1069 21.3352C35.2602 21.0071 34.3344 20.9333 33.4455 21.1232C32.5566 21.3132 31.744 21.7583 31.1094 22.4029C30.4747 23.0476 30.0462 23.8632 29.8773 24.7477C29.7085 25.6322 29.8068 26.5463 30.1601 27.3757C30.5134 28.2052 31.1059 28.9131 31.8635 29.4109C32.6211 29.9088 33.5102 30.1745 34.4196 30.1748C35.0401 30.1778 35.6549 30.0565 36.2269 29.8184C36.7989 29.5803 37.3164 29.2302 37.7483 28.7891C38.1803 28.348 38.5176 27.8251 38.7403 27.2517C38.9629 26.6784 39.0661 26.0664 39.0438 25.4525" fill="#3E4546"/>
<path d="M50.9993 12.6979C50.9993 13.3903 50.7918 14.067 50.4031 14.6426C50.0144 15.2182 49.4619 15.6667 48.8156 15.9313C48.1693 16.196 47.4582 16.2649 46.7723 16.1294C46.0864 15.9939 45.4565 15.66 44.9623 15.17C44.4682 14.68 44.132 14.0559 43.9963 13.3767C43.8607 12.6975 43.9316 11.9937 44.2001 11.3545C44.4687 10.7152 44.9228 10.1691 45.5049 9.78539C46.0871 9.40165 46.7712 9.19749 47.4706 9.19874C48.4071 9.20041 49.3046 9.56981 49.9662 10.2259C50.6277 10.8819 50.9993 11.771 50.9993 12.6979Z" fill="#1790D0"/>
<rect x="13" y="46" width="48.4119" height="18.9985" rx="9.49927" fill="#0092B2"/>
<path d="M21.2403 50.6042C22.2721 50.6042 23.1773 50.8061 23.9558 51.21C24.7438 51.6138 25.3488 52.1913 25.7709 52.9426C26.2024 53.6845 26.4181 54.5484 26.4181 55.5345C26.4181 56.5205 26.2024 57.3845 25.7709 58.1264C25.3488 58.8589 24.7438 59.427 23.9558 59.8308C23.1773 60.2346 22.2721 60.4365 21.2403 60.4365H17.8071V50.6042H21.2403ZM21.1699 58.7603C22.2017 58.7603 22.9991 58.4785 23.5619 57.9151C24.1247 57.3516 24.4061 56.5581 24.4061 55.5345C24.4061 54.5109 24.1247 53.7126 23.5619 53.1398C22.9991 52.5576 22.2017 52.2664 21.1699 52.2664H19.777V58.7603H21.1699Z" fill="white"/>
<path d="M32.4514 60.5352C31.5322 60.5352 30.6879 60.3192 29.9188 59.8872C29.1496 59.4552 28.5399 58.8589 28.0896 58.0982C27.6394 57.3281 27.4143 56.4595 27.4143 55.4922C27.4143 54.5343 27.6394 53.6751 28.0896 52.9144C28.5399 52.1444 29.1496 51.5433 29.9188 51.1114C30.6879 50.6794 31.5322 50.4634 32.4514 50.4634C33.3801 50.4634 34.2243 50.6794 34.9841 51.1114C35.7532 51.5433 36.3583 52.1444 36.7991 52.9144C37.2494 53.6751 37.4745 54.5343 37.4745 55.4922C37.4745 56.4595 37.2494 57.3281 36.7991 58.0982C36.3583 58.8589 35.7532 59.4552 34.9841 59.8872C34.2149 60.3192 33.3707 60.5352 32.4514 60.5352ZM32.4514 58.7744C33.0424 58.7744 33.563 58.6429 34.0132 58.3799C34.4635 58.1076 34.8152 57.7226 35.0685 57.2248C35.3218 56.7271 35.4484 56.1496 35.4484 55.4922C35.4484 54.8349 35.3218 54.262 35.0685 53.7737C34.8152 53.276 34.4635 52.8956 34.0132 52.6327C33.563 52.3697 33.0424 52.2383 32.4514 52.2383C31.8605 52.2383 31.3352 52.3697 30.8756 52.6327C30.4253 52.8956 30.0735 53.276 29.8203 53.7737C29.567 54.262 29.4404 54.8349 29.4404 55.4922C29.4404 56.1496 29.567 56.7271 29.8203 57.2248C30.0735 57.7226 30.4253 58.1076 30.8756 58.3799C31.3352 58.6429 31.8605 58.7744 32.4514 58.7744Z" fill="white"/>
<path d="M38.4616 55.5063C38.4616 54.539 38.6774 53.6751 39.1089 52.9144C39.5497 52.1444 40.1454 51.548 40.8958 51.1254C41.6556 50.6935 42.5045 50.4775 43.4425 50.4775C44.54 50.4775 45.5015 50.7592 46.3269 51.3226C47.1524 51.8861 47.7292 52.6656 48.0576 53.661H45.7922C45.5671 53.1914 45.2482 52.8393 44.8355 52.6045C44.4321 52.3697 43.9631 52.2524 43.4284 52.2524C42.8562 52.2524 42.345 52.3885 41.8948 52.6609C41.4539 52.9238 41.1068 53.2994 40.8536 53.7878C40.6097 54.2761 40.4877 54.8489 40.4877 55.5063C40.4877 56.1543 40.6097 56.7271 40.8536 57.2248C41.1068 57.7132 41.4539 58.0935 41.8948 58.3658C42.345 58.6288 42.8562 58.7603 43.4284 58.7603C43.9631 58.7603 44.4321 58.6429 44.8355 58.4081C45.2482 58.1639 45.5671 57.8071 45.7922 57.3375H48.0576C47.7292 58.3424 47.1524 59.1265 46.3269 59.69C45.5108 60.244 44.5494 60.5211 43.4425 60.5211C42.5045 60.5211 41.6556 60.3098 40.8958 59.8872C40.1454 59.4552 39.5497 58.8589 39.1089 58.0982C38.6774 57.3375 38.4616 56.4736 38.4616 55.5063Z" fill="white"/>
<path d="M53.131 60.5352C52.4462 60.5352 51.8271 60.4178 51.2737 60.183C50.7297 59.9482 50.2982 59.6101 49.9792 59.1688C49.6603 58.7274 49.4962 58.2062 49.4868 57.6052H51.5973C51.6255 58.009 51.7662 58.3283 52.0194 58.5631C52.2821 58.7978 52.6385 58.9152 53.0888 58.9152C53.5484 58.9152 53.9095 58.8072 54.1722 58.5912C54.4348 58.3658 54.5662 58.0747 54.5662 57.7179C54.5662 57.4268 54.477 57.1873 54.2988 56.9995C54.1206 56.8116 53.8955 56.6661 53.6234 56.5628C53.3608 56.4501 52.995 56.328 52.526 56.1965C51.8881 56.0087 51.3675 55.8256 50.9642 55.6472C50.5702 55.4594 50.2278 55.1823 49.937 54.8161C49.6556 54.4404 49.5149 53.9427 49.5149 53.3229C49.5149 52.7407 49.6603 52.2336 49.9511 51.8016C50.2419 51.3696 50.6499 51.0409 51.1752 50.8155C51.7005 50.5808 52.3008 50.4634 52.9762 50.4634C53.9893 50.4634 54.81 50.7122 55.4385 51.21C56.0764 51.6983 56.4281 52.3838 56.4938 53.2666H54.327C54.3082 52.9285 54.1628 52.6515 53.8908 52.4355C53.6281 52.2101 53.2764 52.0974 52.8355 52.0974C52.4509 52.0974 52.1414 52.196 51.9069 52.3932C51.6817 52.5904 51.5692 52.8768 51.5692 53.2525C51.5692 53.5154 51.6536 53.7361 51.8224 53.9145C52.0007 54.0836 52.2164 54.2244 52.4697 54.3371C52.7323 54.4404 53.0982 54.5625 53.5672 54.7034C54.205 54.8912 54.7256 55.079 55.129 55.2668C55.5323 55.4547 55.8794 55.7364 56.1702 56.112C56.4609 56.4877 56.6063 56.9807 56.6063 57.5911C56.6063 58.117 56.4703 58.6053 56.1983 59.0561C55.9263 59.5068 55.5276 59.8684 55.0023 60.1407C54.477 60.4037 53.8533 60.5352 53.131 60.5352Z" fill="white"/>
<defs>
<linearGradient id="paint0_linear_105_1666" x1="37.5" y1="75" x2="37.5" y2="0" gradientUnits="userSpaceOnUse">
<stop stop-color="white"/>
<stop offset="1" stop-color="#D0D5DD"/>
</linearGradient>
</defs>
</svg>
