<svg width="1902" height="324" viewBox="0 0 1902 324" fill="none" xmlns="http://www.w3.org/2000/svg">
<mask id="mask0_92_2131" style="mask-type:luminance" maskUnits="userSpaceOnUse" x="0" y="0" width="1324" height="324">
<path d="M1323.43 0H0V324H1323.43V0Z" fill="white"/>
</mask>
<g mask="url(#mask0_92_2131)">
<path d="M170.863 231.2C170.863 260.542 163.848 278.145 153.317 291.056C144.697 301.92 133.62 310.568 121.004 316.283C108.388 321.998 94.5947 324.615 80.7689 323.917C66.0728 323.935 51.5298 320.922 38.0426 315.067C24.5555 309.213 12.4119 300.641 2.36547 289.882L29.2784 261.716C35.4705 269.048 43.1766 274.945 51.864 278.997C60.5514 283.05 70.0126 285.162 79.5937 285.187C85.6878 285.844 91.8497 285.011 97.5544 282.764C103.259 280.516 108.338 276.918 112.358 272.278C119.358 265.256 122.889 254.674 122.889 233.549V228.854C110.405 238.361 95.262 243.697 79.5937 244.111C67.8845 243.934 56.3368 241.342 45.6693 236.497C35.0017 231.651 25.4427 224.654 17.5872 215.944C6.37631 198.85 0.277266 178.896 0.0103275 158.436C-0.363753 147.63 1.405 136.856 5.21408 126.741C9.02303 116.626 14.7966 107.369 22.1996 99.5085C29.6025 91.648 38.488 85.3399 48.3402 80.9504C58.1924 76.5609 68.8156 74.1759 79.5937 73.9351H80.7638C98.1178 73.997 114.972 79.7685 128.739 90.3661V77.4469H170.863V231.2ZM131.079 158.436C131.312 152.616 130.362 146.81 128.284 141.371C126.206 135.93 123.044 130.973 118.993 126.801C114.941 122.627 110.085 119.325 104.72 117.096C99.353 114.869 93.5916 113.76 87.7846 113.839C81.9797 113.763 76.2204 114.875 70.8577 117.105C65.495 119.334 60.6412 122.636 56.5926 126.809C52.5439 130.983 49.385 135.939 47.3085 141.376C45.2321 146.814 44.2816 152.618 44.5151 158.436C44.2815 164.256 45.2327 170.063 47.3107 175.502C49.3887 180.942 52.5498 185.9 56.6012 190.072C60.6526 194.246 65.5093 197.548 70.875 199.777C76.2405 202.004 82.0027 203.112 87.8097 203.034C93.6145 203.11 99.3741 201.998 104.737 199.768C110.1 197.538 114.953 194.236 119.002 190.064C123.051 185.89 126.209 180.934 128.285 175.496C130.362 170.059 131.312 164.255 131.079 158.436Z" fill="#3F4141"/>
<path d="M331.17 240.594C322.386 242.912 313.342 244.093 304.258 244.104C293.728 244.77 283.187 243.001 273.449 238.93C263.709 234.86 255.033 228.6 248.091 220.631C238.917 205.928 234.807 188.611 236.39 171.339V113.842H190.756V77.4597H236.39V31.6885H279.684V77.4597H332.34V113.842H279.684V176.035C279.195 179.586 279.462 183.201 280.471 186.641C281.48 190.081 283.206 193.266 285.536 195.986C288.359 198.984 291.833 201.287 295.69 202.715C299.547 204.144 303.679 204.659 307.768 204.221C313.619 204.221 319.469 203.048 325.32 203.048L331.17 240.594Z" fill="#3F4141"/>
<path d="M498.499 213.596C490.022 222.865 479.713 230.262 468.23 235.317C456.747 240.371 444.342 242.974 431.802 242.957C410.27 243.891 389.235 236.286 373.25 221.788C357.265 207.288 347.614 187.059 346.383 165.478V158.457C346.383 112.666 376.805 73.9351 425.951 73.9351C470.415 73.9351 502.009 111.491 502.009 157.262C502.256 161.601 501.862 165.951 500.839 170.173H388.508C389.527 181.127 394.716 191.264 402.999 198.478C411.28 205.69 422.016 209.425 432.972 208.902C448.648 207.686 463.283 200.557 473.927 188.951L498.499 213.596ZM457.544 137.311C456.578 129.36 452.68 122.059 446.616 116.847C440.552 111.635 432.762 108.886 424.781 109.144C416.577 109.012 408.584 111.753 402.177 116.893C395.769 122.035 391.35 129.255 389.677 137.311H457.544Z" fill="#3F4141"/>
<path d="M679.864 206.557C671.556 218.287 660.467 227.755 647.596 234.107C634.725 240.46 620.478 243.496 606.146 242.939C583.701 243.507 561.932 235.217 545.519 219.855C529.104 204.492 519.357 183.282 518.371 160.786C517.81 138.276 526.078 116.443 541.398 99.9834C556.717 83.5228 577.865 73.7493 600.295 72.7646H606.146C619.217 72.6251 632.144 75.5186 643.917 81.2196C655.69 86.9192 665.99 95.2727 674.012 105.625L643.589 133.792C639.191 127.915 633.555 123.079 627.084 119.632C620.612 116.183 613.464 114.207 606.146 113.841C600.458 113.831 594.825 114.948 589.569 117.127C584.313 119.306 579.538 122.504 575.518 126.539C571.497 130.573 568.311 135.364 566.142 140.637C563.972 145.91 562.863 151.561 562.875 157.265V158.439C562.702 164.147 563.657 169.832 565.684 175.167C567.71 180.503 570.769 185.384 574.685 189.53C578.6 193.674 583.294 197.003 588.498 199.32C593.7 201.639 599.309 202.901 605 203.037H608.5C616.171 202.965 623.707 201 630.441 197.314C637.175 193.631 642.901 188.341 647.114 181.912L679.864 206.557Z" fill="#3F4141"/>
<path d="M746.56 240.596H703.265V1.17725H746.56V88.0247C759.387 78.3273 774.963 72.9827 791.024 72.7686C801.681 72.808 812.205 75.1324 821.891 79.5852C831.577 84.0381 840.204 90.5181 847.19 98.5871C853.573 106.612 858.307 115.827 861.118 125.697C863.931 135.568 864.765 145.9 863.572 156.096V239.413H820.278V152.574C820.811 147.118 820.258 141.61 818.652 136.37C817.045 131.129 814.415 126.262 810.916 122.05C804.111 116.069 795.392 112.737 786.344 112.661C778.59 113.111 771.022 115.231 764.157 118.877C757.292 122.521 751.29 127.606 746.56 133.786V240.596Z" fill="#3F4141"/>
<path d="M901.016 240.592V77.4495H943.14V90.3687C957.965 78.2764 976.921 72.4881 995.949 74.2433C1014.98 75.9986 1032.56 85.1565 1044.94 99.7576C1051.32 107.783 1056.06 116.997 1058.87 126.868C1061.68 136.737 1062.51 147.07 1061.32 157.265V240.592H1018.03V153.744C1018.56 148.29 1018.01 142.783 1016.4 137.546C1014.79 132.307 1012.17 127.441 1008.67 123.231C1001.86 117.249 993.143 113.918 984.095 113.842C976.34 114.291 968.772 116.411 961.907 120.056C955.042 123.701 949.041 128.787 944.311 134.967V240.592H901.016Z" fill="#3F4141"/>
<path d="M1212.27 77.4448V90.364C1198.69 79.424 1181.71 73.6089 1164.3 73.9343C1119.83 73.9343 1084.73 111.49 1084.73 159.608C1084.71 180.678 1092.18 201.065 1105.79 217.116C1113.43 225.789 1122.78 232.772 1133.26 237.621C1143.73 242.469 1155.1 245.08 1166.64 245.282C1183.33 245.564 1199.56 239.721 1212.27 228.851V241.762H1254.39V77.4448H1212.27ZM1172.49 203.033C1166.68 203.112 1160.92 202.003 1155.55 199.775C1150.19 197.546 1145.33 194.244 1141.28 190.071C1137.23 185.897 1134.07 180.94 1131.99 175.501C1129.91 170.062 1128.96 164.254 1129.19 158.435C1129.04 152.635 1130.05 146.865 1132.15 141.463C1134.26 136.062 1137.43 131.137 1141.46 126.983C1145.5 122.827 1150.32 119.524 1155.65 117.269C1160.98 115.015 1166.7 113.853 1172.49 113.853C1178.27 113.853 1183.99 115.015 1189.32 117.269C1194.65 119.524 1199.47 122.827 1203.51 126.983C1207.55 131.137 1210.71 136.062 1212.82 141.463C1214.93 146.865 1215.93 152.635 1215.78 158.435C1216.01 164.254 1215.06 170.062 1212.99 175.501C1210.91 180.94 1207.74 185.897 1203.69 190.071C1199.64 194.244 1194.79 197.546 1189.42 199.775C1184.05 202.003 1178.29 203.112 1172.49 203.033Z" fill="#3A3C3D"/>
<path d="M1323.41 32.8615C1323.41 39.3616 1321.49 45.7158 1317.89 51.1203C1314.29 56.5248 1309.17 60.7368 1303.18 63.2234C1297.19 65.7099 1290.61 66.3596 1284.25 65.0899C1277.89 63.8204 1272.05 60.6886 1267.47 56.0909C1262.89 51.493 1259.77 45.6358 1258.51 39.2601C1257.25 32.8843 1257.9 26.2763 1260.38 20.272C1262.87 14.2677 1267.07 9.1368 1272.46 5.52843C1277.85 1.91992 1284.19 -0.00393829 1290.67 6.05297e-06C1299.3 0.194265 1307.51 3.71938 1313.61 9.84115C1319.71 15.9628 1323.22 24.2089 1323.41 32.8615Z" fill="#2594D2"/>
</g>
<rect x="1399.49" y="63" width="502.512" height="197.203" rx="30" fill="#135E84"/>
<path d="M1485.02 110.793C1495.73 110.793 1505.12 112.888 1513.2 117.08C1521.38 121.271 1527.66 127.266 1532.04 135.064C1536.52 142.764 1538.76 151.732 1538.76 161.967C1538.76 172.202 1536.52 181.169 1532.04 188.87C1527.66 196.473 1521.38 202.37 1513.2 206.561C1505.12 210.753 1495.73 212.849 1485.02 212.849H1449.38V110.793H1485.02ZM1484.29 195.449C1495 195.449 1503.27 192.525 1509.11 186.677C1514.96 180.828 1517.88 172.592 1517.88 161.967C1517.88 151.342 1514.96 143.057 1509.11 137.111C1503.27 131.067 1495 128.046 1484.29 128.046H1469.83V195.449H1484.29Z" fill="white"/>
<path d="M1601.39 213.872C1591.84 213.872 1583.08 211.63 1575.1 207.146C1567.11 202.663 1560.79 196.473 1556.11 188.577C1551.44 180.585 1549.1 171.568 1549.1 161.528C1549.1 151.586 1551.44 142.667 1556.11 134.771C1560.79 126.779 1567.11 120.54 1575.1 116.056C1583.08 111.572 1591.84 109.331 1601.39 109.331C1611.02 109.331 1619.79 111.572 1627.67 116.056C1635.66 120.54 1641.94 126.779 1646.51 134.771C1651.19 142.667 1653.52 151.586 1653.52 161.528C1653.52 171.568 1651.19 180.585 1646.51 188.577C1641.94 196.473 1635.66 202.663 1627.67 207.146C1619.69 211.63 1610.93 213.872 1601.39 213.872ZM1601.39 195.596C1607.52 195.596 1612.92 194.231 1617.6 191.502C1622.27 188.675 1625.92 184.678 1628.55 179.512C1631.18 174.346 1632.49 168.351 1632.49 161.528C1632.49 154.705 1631.18 148.759 1628.55 143.69C1625.92 138.524 1622.27 134.576 1617.6 131.847C1612.92 129.118 1607.52 127.753 1601.39 127.753C1595.25 127.753 1589.8 129.118 1585.03 131.847C1580.36 134.576 1576.7 138.524 1574.08 143.69C1571.45 148.759 1570.13 154.705 1570.13 161.528C1570.13 168.351 1571.45 174.346 1574.08 179.512C1576.7 184.678 1580.36 188.675 1585.03 191.502C1589.8 194.231 1595.25 195.596 1601.39 195.596Z" fill="white"/>
<path d="M1663.77 161.674C1663.77 151.635 1666.01 142.667 1670.49 134.771C1675.06 126.779 1681.25 120.589 1689.03 116.203C1696.92 111.719 1705.73 109.477 1715.47 109.477C1726.86 109.477 1736.84 112.401 1745.41 118.249C1753.98 124.098 1759.96 132.188 1763.37 142.521H1739.86C1737.52 137.647 1734.21 133.992 1729.93 131.555C1725.74 129.118 1720.87 127.899 1715.32 127.899C1709.38 127.899 1704.08 129.313 1699.4 132.14C1694.83 134.869 1691.23 138.768 1688.6 143.837C1686.07 148.905 1684.8 154.851 1684.8 161.674C1684.8 168.4 1686.07 174.346 1688.6 179.512C1691.23 184.581 1694.83 188.529 1699.4 191.355C1704.08 194.085 1709.38 195.449 1715.32 195.449C1720.87 195.449 1725.74 194.231 1729.93 191.794C1734.21 189.26 1737.52 185.556 1739.86 180.682H1763.37C1759.96 191.112 1753.98 199.251 1745.41 205.099C1736.94 210.85 1726.96 213.726 1715.47 213.726C1705.73 213.726 1696.92 211.533 1689.03 207.146C1681.25 202.663 1675.06 196.473 1670.49 188.577C1666.01 180.682 1663.77 171.714 1663.77 161.674Z" fill="white"/>
<path d="M1816.03 213.872C1808.92 213.872 1802.5 212.654 1796.75 210.217C1791.11 207.78 1786.63 204.271 1783.32 199.69C1780.01 195.108 1778.3 189.698 1778.21 183.46H1800.11C1800.41 187.651 1801.87 190.966 1804.49 193.402C1807.22 195.839 1810.92 197.058 1815.59 197.058C1820.36 197.058 1824.11 195.937 1826.84 193.695C1829.57 191.355 1830.93 188.334 1830.93 184.63C1830.93 181.608 1830 179.122 1828.15 177.173C1826.3 175.223 1823.97 173.713 1821.14 172.64C1818.42 171.471 1814.62 170.203 1809.75 168.839C1803.13 166.889 1797.73 164.989 1793.54 163.137C1789.45 161.187 1785.9 158.312 1782.88 154.51C1779.96 150.611 1778.5 145.445 1778.5 139.012C1778.5 132.968 1780.01 127.705 1783.03 123.221C1786.04 118.737 1790.28 115.325 1795.73 112.986C1801.18 110.549 1807.42 109.331 1814.43 109.331C1824.94 109.331 1833.46 111.914 1839.98 117.08C1846.6 122.148 1850.26 129.264 1850.94 138.427H1828.45C1828.25 134.918 1826.74 132.042 1823.92 129.8C1821.19 127.461 1817.54 126.291 1812.97 126.291C1808.97 126.291 1805.76 127.315 1803.33 129.362C1800.99 131.409 1799.82 134.382 1799.82 138.281C1799.82 141.01 1800.7 143.3 1802.45 145.152C1804.3 146.907 1806.54 148.369 1809.17 149.539C1811.89 150.611 1815.69 151.878 1820.56 153.34C1827.18 155.29 1832.58 157.239 1836.77 159.189C1840.96 161.138 1844.56 164.063 1847.58 167.962C1850.6 171.861 1852.11 176.978 1852.11 183.314C1852.11 188.772 1850.69 193.841 1847.87 198.52C1845.05 203.199 1840.91 206.951 1835.46 209.778C1830 212.507 1823.53 213.872 1816.03 213.872Z" fill="white"/>
</svg>
