<svg width="365" height="365" viewBox="0 0 365 365" fill="none" xmlns="http://www.w3.org/2000/svg">
<circle cx="182.5" cy="182.5" r="182" fill="#E2F2FB" stroke="#E2F2FB"/>
<mask id="mask0_113_6135" style="mask-type:alpha" maskUnits="userSpaceOnUse" x="0" y="0" width="365" height="365">
<circle cx="182.5" cy="182.5" r="182" fill="#C4C4C4" stroke="#0F4B6A"/>
</mask>
<g mask="url(#mask0_113_6135)">
<path fill-rule="evenodd" clip-rule="evenodd" d="M143.961 170.063L225.51 147.377C234.246 144.966 242.899 148.42 244.818 155.1C265.507 224.221 289.136 292.817 332.866 349.149C355.186 377.557 389.087 403.231 426.543 391.241C444.469 386.447 459.099 371.645 479.761 378.468C513.235 385.653 540.409 420.42 517.935 452.88C503.223 472.661 477.478 480.597 454.031 488.499C410.525 501.408 361.6 495.309 322.389 472.494C218.081 408.351 177.242 280.635 143.961 170.063Z" fill="white"/>
<path fill-rule="evenodd" clip-rule="evenodd" d="M460.64 379.466C466.437 378.052 472.49 377.87 479.224 380.094C479.284 380.113 479.342 380.13 479.403 380.142C498.623 384.268 515.197 397.43 521.626 413.673C525.172 422.633 527.167 436.539 516.527 451.905C502.836 470.312 479.375 478.186 456.686 485.801L453.483 486.877C410.823 499.532 362.098 493.617 323.251 471.014C276.866 442.491 239.179 398.946 208.066 337.912C181.729 286.234 163.692 229.597 146.11 171.243L225.97 149.028C233.804 146.87 241.516 149.803 243.173 155.573C262.226 219.228 286.331 291.994 331.514 350.199C344.309 366.485 358.73 379.158 373.226 386.857C391.349 396.483 409.464 398.507 427.065 392.872C432.89 391.317 438.45 388.678 443.827 386.126C449.45 383.457 454.921 380.861 460.64 379.466ZM447.038 492.161C449.551 491.548 452.041 490.877 454.519 490.142L457.774 489.048C480.965 481.266 504.944 473.218 519.31 453.902C530.845 437.243 528.664 422.15 524.81 412.412C517.982 395.159 500.482 381.195 480.21 376.813C465.568 372.017 453.769 377.617 442.359 383.031C437.12 385.517 431.703 388.089 426.102 389.586C409.323 394.956 392.109 393.009 374.833 383.833C360.755 376.355 346.709 363.996 334.212 348.091C289.398 290.361 265.417 217.949 246.459 154.61C244.291 147.062 234.707 143.06 225.055 145.727L143.507 168.412C143.061 168.536 142.684 168.833 142.465 169.236C142.246 169.639 142.194 170.114 142.32 170.557C160.111 229.655 178.295 287.043 205.017 339.468C236.42 401.079 274.52 445.07 321.493 473.953C358.923 495.732 405.286 502.345 447.038 492.161Z" fill="#0F4B6A"/>
<path fill-rule="evenodd" clip-rule="evenodd" d="M203.734 158.493C200.488 147.042 196.93 133.717 194.032 122.149C190.23 106.85 209.718 102.08 213.625 117.182C217.19 131.424 221.386 146.913 225.497 161.032" fill="white"/>
<path fill-rule="evenodd" clip-rule="evenodd" d="M225.897 162.699C225.922 162.693 225.947 162.686 225.972 162.679C226.879 162.415 227.402 161.464 227.137 160.557C223.022 146.426 218.813 130.875 215.283 116.769C213.064 108.196 206.133 105.197 200.473 106.618C193.019 108.509 190.753 116.072 192.363 122.566C195.268 134.149 198.812 147.414 202.082 158.963C202.34 159.872 203.244 160.409 204.197 160.144C205.106 159.886 205.635 158.939 205.378 158.029C202.113 146.513 198.581 133.284 195.69 121.735C194.522 117.038 195.784 111.341 201.315 109.938C201.338 109.933 201.361 109.927 201.384 109.921C205.288 108.969 210.243 110.962 211.963 117.614C215.501 131.747 219.723 147.343 223.849 161.514C224.106 162.398 225.013 162.915 225.897 162.699Z" fill="#0F4B6A"/>
<path fill-rule="evenodd" clip-rule="evenodd" d="M203.731 158.495C201.342 150.23 198.59 139.614 196.329 131.275C194.809 123.175 191.461 110.51 181.264 112.86C171.079 115.51 174.27 128.483 176.765 136.365C179.07 144.836 181.842 155.59 184.279 163.988" fill="white"/>
<path fill-rule="evenodd" clip-rule="evenodd" d="M184.679 165.655C184.703 165.649 184.728 165.643 184.753 165.635C185.659 165.373 186.185 164.422 185.919 163.514C184.283 157.891 182.515 151.256 180.808 144.839C179.979 141.729 179.17 138.701 178.412 135.919C177.388 132.658 174.313 122.945 177.132 117.842C178.054 116.165 179.551 115.077 181.689 114.521C183.826 114.029 185.673 114.305 187.308 115.372C192.196 118.573 194.032 128.375 194.641 131.595C194.652 131.639 194.663 131.683 194.673 131.727C195.367 134.283 196.105 137.053 196.862 139.906C198.61 146.456 200.419 153.229 202.08 158.975C202.341 159.884 203.28 160.416 204.2 160.144C205.109 159.882 205.633 158.932 205.37 158.024C203.719 152.311 201.916 145.556 200.173 139.022C199.417 136.191 198.683 133.439 197.993 130.897C196.825 124.696 194.64 116.079 189.183 112.506C186.761 110.924 183.965 110.482 180.869 111.196C177.77 112.001 175.517 113.677 174.128 116.187C170.968 121.913 173.184 130.743 175.131 136.885C175.863 139.595 176.671 142.617 177.498 145.721C179.209 152.156 180.99 158.807 182.626 164.469C182.886 165.352 183.788 165.872 184.679 165.655Z" fill="#0F4B6A"/>
<path fill-rule="evenodd" clip-rule="evenodd" d="M184.276 163.989C181.851 155.601 179.056 144.829 176.762 136.366C175.227 128.23 171.848 115.316 161.626 117.673C151.424 120.327 154.707 133.533 157.203 141.454C159.538 150.05 162.358 160.959 164.824 169.482" fill="white"/>
<path fill-rule="evenodd" clip-rule="evenodd" d="M165.233 171.143C165.258 171.137 165.283 171.131 165.307 171.123C166.213 170.861 166.739 169.91 166.473 169.002C164.813 163.277 163.016 156.524 161.273 149.994C160.438 146.859 159.623 143.808 158.859 141.003C157.061 135.291 154.986 127.253 157.542 122.63C158.465 120.959 159.947 119.878 162.06 119.328C164.171 118.843 166.01 119.117 167.635 120.178C172.583 123.411 174.464 133.399 175.088 136.68C175.091 136.725 175.101 136.769 175.12 136.81C175.807 139.372 176.553 142.142 177.311 144.996C179.092 151.683 180.937 158.597 182.632 164.462C182.897 165.37 183.838 165.903 184.759 165.631C185.664 165.369 186.191 164.419 185.925 163.511C184.238 157.68 182.398 150.783 180.621 144.113C179.868 141.279 179.126 138.527 178.443 135.979C177.248 129.672 175.015 120.913 169.509 117.311C167.097 115.734 164.319 115.293 161.249 116.002C158.165 116.802 155.928 118.471 154.546 120.972C151.355 126.748 153.605 135.72 155.578 141.966C156.316 144.702 157.129 147.747 157.963 150.876C159.71 157.424 161.511 164.195 163.181 169.957C163.44 170.84 164.343 171.36 165.233 171.143Z" fill="#0F4B6A"/>
<path fill-rule="evenodd" clip-rule="evenodd" d="M228.881 172.602C227.063 165.225 223.083 156.127 222.71 148.503C223.521 135.78 239.89 136.074 242.674 147.655C246.656 161.652 251.03 176.423 255.578 190.179" fill="white"/>
<path fill-rule="evenodd" clip-rule="evenodd" d="M255.984 191.842C256.029 191.831 256.073 191.819 256.118 191.804C257.016 191.507 257.503 190.538 257.206 189.64C253.271 177.737 249.178 164.247 244.324 147.186C242.625 140.113 236.379 136.838 231.094 137.294C225.365 137.786 221.403 142.146 221.004 148.393C221 148.458 221 148.522 221.002 148.586C221.259 153.846 223.1 159.587 224.88 165.14C225.774 167.929 226.618 170.563 227.221 173.011C227.447 173.928 228.373 174.489 229.29 174.265L229.294 174.264C230.212 174.038 230.773 173.11 230.546 172.192C229.915 169.63 229.053 166.942 228.141 164.094C226.441 158.789 224.683 153.304 224.429 148.516C224.808 143.171 228.257 140.976 231.389 140.706C235.096 140.386 239.688 142.55 241.012 148.055C245.897 165.231 250.004 178.766 253.955 190.715C254.236 191.57 255.126 192.052 255.984 191.842Z" fill="#0F4B6A"/>
<path fill-rule="evenodd" clip-rule="evenodd" d="M164.827 169.478C159.825 158.801 160.192 128.291 144.143 131.004C128.515 136.272 143.874 163.361 145.375 174.97" fill="white"/>
<path fill-rule="evenodd" clip-rule="evenodd" d="M145.779 176.638C146.619 176.433 147.181 175.63 147.073 174.754C146.643 171.473 145.195 167.089 143.657 162.449C138.706 147.499 135.625 135.806 144.565 132.674C153.521 131.273 156.574 142.307 159.632 156.867C160.719 162.046 161.745 166.937 163.274 170.208C163.677 171.064 164.692 171.434 165.547 171.034C166.409 170.632 166.777 169.612 166.375 168.757C165.013 165.847 164.024 161.143 162.986 156.163C160.27 143.222 156.888 127.116 143.861 129.318C143.776 129.332 143.685 129.355 143.603 129.383C130.557 133.78 136.249 150.973 140.404 163.527C141.893 168.006 143.295 172.237 143.673 175.194C143.795 176.131 144.653 176.794 145.593 176.673C145.653 176.665 145.72 176.652 145.779 176.638Z" fill="#0F4B6A"/>
<path fill-rule="evenodd" clip-rule="evenodd" d="M213.914 201.48L130.805 185.42C121.904 183.719 113.557 187.856 112.181 194.669C97.1119 265.229 79.0702 335.501 40.0081 395.165C20.0423 425.275 -11.686 453.589 -49.9846 444.647C-68.2379 441.309 -84.0097 427.73 -104.057 436.191C-136.845 446.043 -161.138 482.88 -136.129 513.429C-119.875 531.964 -93.5757 537.807 -69.5691 543.8C-25.1669 553.171 23.1097 543.161 60.3606 517.269C159.179 444.954 189.624 314.369 213.914 201.48Z" fill="white"/>
<path fill-rule="evenodd" clip-rule="evenodd" d="M-84.9165 435.65C-90.8086 434.706 -96.8565 435.011 -103.39 437.769C-103.448 437.793 -103.505 437.814 -103.564 437.831C-122.391 443.489 -137.854 457.939 -142.957 474.646C-145.771 483.862 -146.642 497.884 -134.802 512.345C-119.677 529.593 -95.6588 535.556 -72.4312 541.324L-69.1529 542.139C-25.6142 551.325 22.4785 541.515 59.3839 515.864C103.328 483.706 137.394 437.274 163.503 373.938C185.603 320.311 199.03 262.408 211.868 202.829L130.48 187.102C122.499 185.581 115.047 189.124 113.859 195.008C99.9822 259.989 81.8019 334.456 41.4414 396.103C29.9956 413.364 16.6395 427.155 2.8094 435.994C-14.4818 447.045 -32.3761 450.518 -50.373 446.315C-56.3036 445.233 -62.0578 443.049 -67.6224 440.938C-73.442 438.729 -79.1039 436.581 -84.9165 435.65ZM-62.3042 546.888C-64.8576 546.479 -67.3942 546.009 -69.9224 545.476L-73.2558 544.647C-96.9963 538.753 -121.544 532.658 -137.416 514.559C-150.252 498.881 -149.291 483.661 -146.232 473.645C-140.812 455.9 -124.491 440.574 -104.637 434.578C-90.427 428.621 -78.2156 433.254 -66.4079 437.735C-60.9864 439.792 -55.3801 441.92 -49.6765 442.962C-32.5202 446.967 -15.5187 443.643 0.964077 433.108C14.396 424.524 27.4032 411.077 38.5824 394.219C78.6136 333.074 96.6983 258.97 110.506 194.312C112.061 186.615 121.293 181.856 131.128 183.739L214.235 199.799C214.689 199.886 215.089 200.152 215.34 200.536C215.59 200.92 215.68 201.39 215.59 201.841C202.605 262.178 189.09 320.841 166.667 375.243C140.315 439.179 105.873 486.088 61.3723 518.652C25.8134 543.368 -19.8683 553.685 -62.3042 546.888Z" fill="#0F4B6A"/>
<path fill-rule="evenodd" clip-rule="evenodd" d="M153.416 194.756C155.732 183.081 158.207 169.514 160.166 157.75C162.727 142.195 142.919 139.006 140.237 154.373C137.829 168.855 134.891 184.631 131.927 199.035" fill="white"/>
<path fill-rule="evenodd" clip-rule="evenodd" d="M131.654 200.724C131.629 200.72 131.604 200.715 131.579 200.711C130.653 200.52 130.055 199.614 130.246 198.688C133.212 184.272 136.159 168.434 138.544 154.09C140.067 145.366 146.735 141.82 152.491 142.782C160.073 144.067 162.939 151.424 161.855 158.026C159.891 169.805 157.424 183.312 155.092 195.087C154.908 196.014 154.05 196.622 153.079 196.434C152.152 196.25 151.549 195.348 151.732 194.42C154.061 182.679 156.518 169.209 158.473 157.466C159.26 152.69 157.544 147.113 151.918 146.159C151.895 146.155 151.871 146.151 151.847 146.148C147.88 145.512 143.101 147.897 141.921 154.665C139.531 169.037 136.575 184.922 133.601 199.378C133.416 200.28 132.553 200.868 131.654 200.724Z" fill="#0F4B6A"/>
<path fill-rule="evenodd" clip-rule="evenodd" d="M153.412 194.754C155.129 186.323 157.019 175.52 158.603 167.027C159.467 158.831 161.786 145.937 172.139 147.46C182.505 149.284 180.366 162.471 178.512 170.528C176.896 179.157 174.996 190.099 173.243 198.665" fill="white"/>
<path fill-rule="evenodd" clip-rule="evenodd" d="M172.975 200.359C172.949 200.355 172.924 200.351 172.899 200.345C171.975 200.156 171.375 199.251 171.566 198.324C172.745 192.588 173.975 185.832 175.16 179.299C175.736 176.132 176.3 173.049 176.831 170.216C177.591 166.883 179.875 156.954 176.655 152.094C175.602 150.496 174.022 149.532 171.846 149.15C169.677 148.831 167.858 149.254 166.314 150.449C161.699 154.033 160.656 163.951 160.308 167.209C160.301 167.254 160.294 167.299 160.287 167.343C159.8 169.947 159.288 172.767 158.762 175.672C157.546 182.341 156.286 189.237 155.093 195.098C154.905 196.025 154.012 196.631 153.073 196.434C152.147 196.246 151.548 195.341 151.737 194.415C152.924 188.588 154.178 181.709 155.391 175.057C155.917 172.174 156.427 169.372 156.911 166.782C157.576 160.508 159.062 151.743 164.215 147.743C166.502 145.972 169.253 145.307 172.396 145.769C175.551 146.323 177.931 147.813 179.517 150.203C183.126 155.657 181.627 164.635 180.18 170.914C179.668 173.675 179.106 176.752 178.53 179.912C177.342 186.464 176.101 193.236 174.925 199.011C174.737 199.913 173.879 200.504 172.975 200.359Z" fill="#0F4B6A"/>
<path fill-rule="evenodd" clip-rule="evenodd" d="M173.248 198.667C174.991 190.112 176.912 179.15 178.518 170.53C179.394 162.297 181.725 149.154 192.103 150.682C202.485 152.508 200.274 165.934 198.422 174.03C196.785 182.787 194.851 193.887 193.078 202.58" fill="white"/>
<path fill-rule="evenodd" clip-rule="evenodd" d="M192.805 204.269C192.78 204.265 192.754 204.261 192.729 204.255C191.805 204.066 191.205 203.161 191.396 202.234C192.592 196.395 193.841 189.519 195.053 182.87C195.634 179.678 196.201 176.571 196.736 173.714C198.07 167.876 199.493 159.697 196.573 155.295C195.519 153.703 193.955 152.745 191.805 152.367C189.661 152.052 187.851 152.473 186.316 153.662C181.643 157.281 180.571 167.389 180.212 170.709C180.214 170.754 180.207 170.798 180.191 170.841C179.713 173.45 179.192 176.271 178.665 179.177C177.428 185.985 176.144 193.025 174.926 199.008C174.734 199.934 173.839 200.54 172.899 200.344C171.976 200.155 171.375 199.25 171.566 198.324C172.779 192.376 174.06 185.354 175.295 178.563C175.818 175.677 176.336 172.874 176.813 170.28C177.497 163.897 179.019 154.987 184.218 150.954C186.495 149.189 189.228 148.526 192.346 148.986C195.484 149.536 197.848 151.019 199.426 153.401C203.072 158.902 201.549 168.026 200.085 174.41C199.569 177.196 199.003 180.298 198.423 183.484C197.208 190.151 195.956 197.045 194.755 202.921C194.567 203.823 193.71 204.414 192.805 204.269Z" fill="#0F4B6A"/>
<path fill-rule="evenodd" clip-rule="evenodd" d="M129.476 210.836C130.695 203.336 133.931 193.948 133.69 186.319C131.86 173.702 115.567 175.31 113.723 187.078C110.879 201.349 107.706 216.424 104.278 230.5" fill="white"/>
<path fill-rule="evenodd" clip-rule="evenodd" d="M104.007 232.191C103.961 232.184 103.916 232.175 103.87 232.164C102.952 231.94 102.388 231.014 102.612 230.095C105.578 217.914 108.574 204.138 112.041 186.743C113.166 179.556 119.129 175.79 124.434 175.82C130.184 175.85 134.483 179.877 135.383 186.073C135.392 186.136 135.397 186.201 135.4 186.264C135.566 191.529 134.194 197.399 132.865 203.077C132.198 205.929 131.569 208.622 131.164 211.111C131.012 212.043 130.135 212.676 129.203 212.527L129.199 212.526C128.265 212.375 127.631 211.494 127.783 210.561C128.207 207.957 128.85 205.208 129.53 202.296C130.799 196.872 132.111 191.263 131.979 186.47C131.171 181.173 127.558 179.262 124.414 179.245C120.694 179.224 116.29 181.749 115.413 187.343C111.924 204.856 108.917 218.677 105.939 230.905C105.727 231.779 104.879 232.331 104.007 232.191Z" fill="#0F4B6A"/>
<path fill-rule="evenodd" clip-rule="evenodd" d="M193.079 202.579C197.207 191.534 194.39 161.153 210.605 162.567C226.605 166.563 213.472 194.798 212.909 206.49" fill="white"/>
<path fill-rule="evenodd" clip-rule="evenodd" d="M212.634 208.18C211.78 208.044 211.155 207.288 211.192 206.407C211.357 203.102 212.449 198.616 213.608 193.867C217.342 178.567 219.474 166.665 210.312 164.261C201.271 163.584 199.115 174.828 197.237 189.586C196.569 194.836 195.94 199.794 194.678 203.177C194.346 204.062 193.363 204.513 192.479 204.182C191.587 203.851 191.138 202.865 191.471 201.98C192.595 198.969 193.202 194.202 193.837 189.154C195.505 176.037 197.582 159.711 210.744 160.859C210.829 160.866 210.922 160.882 211.005 160.903C224.363 164.238 220.071 181.832 216.938 194.68C215.814 199.264 214.756 203.594 214.617 206.572C214.57 207.516 213.768 208.245 212.821 208.2C212.761 208.197 212.693 208.19 212.634 208.18Z" fill="#0F4B6A"/>
</g>
<path d="M240.002 99.9562L267.819 62.4178" stroke="white" stroke-width="15" stroke-linecap="round"/>
<path d="M177.81 80.7481L175.999 25.8262" stroke="white" stroke-width="15" stroke-linecap="round"/>
<path d="M122.369 106.128L88.9893 69.0967" stroke="white" stroke-width="15" stroke-linecap="round"/>
<path d="M260.999 121.091L304.503 87.3495" stroke="#89CCEE" stroke-width="8" stroke-linecap="round"/>
<path d="M209.832 81.0684L213.153 45.8258" stroke="#89CCEE" stroke-width="8" stroke-linecap="round"/>
<path d="M109.832 132.582L58.9999 103.484" stroke="#89CCEE" stroke-width="8" stroke-linecap="round"/>
</svg>
